<svg width="309" height="309" viewBox="0 0 309 309" fill="none" xmlns="http://www.w3.org/2000/svg">
<g clip-path="url(#clip0_407_1375)">
<path d="M255.547 167.758C255.759 165.522 255.295 163.274 254.214 161.305C253.134 159.336 251.487 157.736 249.488 156.714L199.306 130.422L199.861 73.4465C199.886 71.1945 199.241 68.9858 198.009 67.1009C196.776 65.2159 195.011 63.7397 192.938 62.8597C190.865 61.9796 188.577 61.7355 186.365 62.1583C184.153 62.5811 182.117 63.6516 180.514 65.2341L139.914 105.211L86.1423 87.3747C84.0023 86.6733 81.7029 86.6193 79.5323 87.2195C77.3618 87.8197 75.4167 89.0474 73.9411 90.7485C72.4655 92.4497 71.525 94.5487 71.2375 96.7823C70.95 99.0159 71.3283 101.285 72.3251 103.304L97.4351 154.289L63.6506 200.213C62.2866 202.016 61.4926 204.186 61.3706 206.444C61.2485 208.702 61.804 210.945 62.9657 212.885C64.1275 214.825 65.8424 216.373 67.8904 217.331C69.9385 218.29 72.2262 218.614 74.4599 218.263L130.568 209.788L163.447 256.037C164.726 257.883 166.533 259.299 168.632 260.099C170.731 260.899 173.022 261.046 175.206 260.52C177.426 260.036 179.449 258.893 181.009 257.241C182.568 255.588 183.593 253.503 183.947 251.258L193.526 195.029L247.645 177.676C249.804 177.004 251.711 175.7 253.12 173.931C254.529 172.163 255.374 170.012 255.547 167.758ZM245.39 170.692L189.153 188.732C188.513 188.938 187.941 189.315 187.5 189.823C187.059 190.331 186.766 190.95 186.653 191.613L176.689 250.043C176.566 250.847 176.201 251.594 175.643 252.186C175.085 252.778 174.361 253.186 173.566 253.357C172.799 253.545 171.993 253.494 171.255 253.213C170.517 252.932 169.882 252.433 169.434 251.783L135.251 203.693C134.857 203.137 134.317 202.701 133.69 202.435C133.062 202.169 132.374 202.082 131.7 202.185L73.3614 211.001C72.5824 211.13 71.7825 211.02 71.0677 210.685C70.3528 210.349 69.7569 209.804 69.3588 209.122C68.9296 208.432 68.7202 207.627 68.7586 206.814C68.7969 206.002 69.0811 205.22 69.5735 204.573L104.684 156.818C105.083 156.276 105.325 155.635 105.384 154.965C105.443 154.295 105.317 153.622 105.02 153.018L78.9333 100.032C78.5681 99.3111 78.429 98.4969 78.534 97.6958C78.6391 96.8946 78.9834 96.1439 79.5221 95.5416C80.0385 94.938 80.7247 94.5037 81.4912 94.2952C82.2578 94.0867 83.0694 94.1136 83.8204 94.3725L139.756 112.917C140.398 113.132 141.088 113.164 141.748 113.011C142.409 112.859 143.014 112.526 143.497 112.05L185.707 70.492C186.269 69.9246 186.989 69.539 187.773 69.3849C188.558 69.2308 189.37 69.3153 190.105 69.6276C190.841 69.9398 191.466 70.4654 191.9 71.1365C192.334 71.8076 192.556 72.5933 192.539 73.3922L191.964 132.625C191.956 133.29 192.13 133.946 192.466 134.521C192.802 135.096 193.288 135.569 193.872 135.889L246.054 163.18C246.762 163.54 247.345 164.105 247.728 164.801C248.11 165.498 248.275 166.293 248.199 167.084C248.154 167.9 247.86 168.682 247.359 169.327C246.857 169.971 246.17 170.447 245.39 170.692Z" fill="white"/>
</g>
<defs>
<clipPath id="clip0_407_1375">
<rect width="235.159" height="235.159" fill="white" transform="translate(91.8872) rotate(23.0008)"/>
</clipPath>
</defs>
</svg>
