<svg width="21" height="21" viewBox="0 0 21 21" fill="none" xmlns="http://www.w3.org/2000/svg">
<path d="M3.5 15.75H5.25V19.3209L9.71337 15.75H14C14.9651 15.75 15.75 14.9651 15.75 14V7C15.75 6.03488 14.9651 5.25 14 5.25H3.5C2.53487 5.25 1.75 6.03488 1.75 7V14C1.75 14.9651 2.53487 15.75 3.5 15.75Z" fill="#B1B1B1"/>
<path d="M17.5 1.75H7C6.03487 1.75 5.25 2.53487 5.25 3.5H15.75C16.7151 3.5 17.5 4.28487 17.5 5.25V12.25C18.4651 12.25 19.25 11.4651 19.25 10.5V3.5C19.25 2.53487 18.4651 1.75 17.5 1.75Z" fill="#B1B1B1"/>
</svg>
