<svg width="21" height="21" viewBox="0 0 21 21" fill="none" xmlns="http://www.w3.org/2000/svg">
<g clip-path="url(#clip0_466_539)">
<path d="M4.375 19.25C4.37555 19.714 4.5601 20.1588 4.88817 20.4868C5.21624 20.8149 5.66104 20.9995 6.125 21H14.875C15.339 20.9995 15.7838 20.8149 16.1118 20.4868C16.4399 20.1588 16.6245 19.714 16.625 19.25V18.4844H4.375V19.25Z" fill="#B1B1B1"/>
<path d="M16.625 1.75C16.6245 1.28604 16.4399 0.84124 16.1118 0.513171C15.7838 0.185101 15.339 0.000549973 14.875 0L6.125 0C5.66104 0.000549973 5.21624 0.185101 4.88817 0.513171C4.5601 0.84124 4.37555 1.28604 4.375 1.75V2.625H16.625V1.75Z" fill="#B1B1B1"/>
<path d="M20.7562 5.62842L18.1312 2.89404L16.8688 4.10592L17.967 5.24998H16.625V6.99998H18.0614L16.8946 8.11823L18.1054 9.38173L20.7304 6.86611C20.8134 6.78656 20.8799 6.69143 20.9261 6.58617C20.9724 6.4809 20.9974 6.36756 20.9998 6.25261C21.0022 6.13767 20.9819 6.02338 20.9401 5.91628C20.8983 5.80917 20.8358 5.71136 20.7562 5.62842Z" fill="#B1B1B1"/>
<path d="M14 5.25H16.625V3.5H4.375V14H7V15.75H4.375V17.5H16.625V7H14V5.25ZM13.125 8.75H10.0625C9.94647 8.75 9.83519 8.79609 9.75314 8.87814C9.67109 8.96019 9.625 9.07147 9.625 9.1875C9.625 9.30353 9.67109 9.41481 9.75314 9.49686C9.83519 9.57891 9.94647 9.625 10.0625 9.625H10.9375C11.48 9.62446 12.0033 9.8255 12.4059 10.1891C12.8085 10.5527 13.0616 11.0529 13.1161 11.5927C13.1706 12.1324 13.0227 12.6731 12.7009 13.1099C12.3792 13.5467 11.9066 13.8483 11.375 13.9563V14.875H9.625V14H7.875V12.25H10.9375C11.0535 12.25 11.1648 12.2039 11.2469 12.1219C11.3289 12.0398 11.375 11.9285 11.375 11.8125C11.375 11.6965 11.3289 11.5852 11.2469 11.5031C11.1648 11.4211 11.0535 11.375 10.9375 11.375H10.0625C9.52002 11.3755 8.99669 11.1745 8.5941 10.8109C8.19152 10.4473 7.93839 9.94708 7.88388 9.40734C7.82936 8.86761 7.97733 8.32687 8.29907 7.89011C8.62082 7.45334 9.09337 7.1517 9.625 7.04375V6.125H11.375V7H13.125V8.75Z" fill="#B1B1B1"/>
<path d="M2.93855 13.9999L4.10536 12.8817L2.89458 11.6182L0.269582 14.1338C0.186576 14.2133 0.120061 14.3085 0.0738369 14.4137C0.0276131 14.519 0.00258744 14.6323 0.000190241 14.7473C-0.00220696 14.8622 0.0180713 14.9765 0.0598661 15.0836C0.101661 15.1907 0.164153 15.2885 0.24377 15.3715L2.86877 18.1059L4.13118 16.894L3.03294 15.7499H4.37497V13.9999H2.93855Z" fill="#B1B1B1"/>
</g>
<defs>
<clipPath id="clip0_466_539">
<rect width="21" height="21" fill="white"/>
</clipPath>
</defs>
</svg>
