<svg width="21" height="21" viewBox="0 0 21 21" fill="none" xmlns="http://www.w3.org/2000/svg">
<path d="M10.3501 10.1158C11.7398 10.1158 12.9432 9.61732 13.9264 8.63391C14.9097 7.65067 15.4081 6.4476 15.4081 5.05772C15.4081 3.66832 14.9097 2.46509 13.9263 1.48152C12.9428 0.498434 11.7396 0 10.3501 0C8.96017 0 7.7571 0.498434 6.77384 1.48168C5.79059 2.46493 5.29199 3.66816 5.29199 5.05772C5.29199 6.4476 5.79059 7.65083 6.774 8.63408C7.75742 9.61716 8.96065 10.1158 10.3501 10.1158Z" fill="#B1B1B1"/>
<path d="M19.2006 16.1477C19.1722 15.7385 19.1149 15.2921 19.0304 14.8208C18.9452 14.3459 18.8355 13.8969 18.7041 13.4866C18.5684 13.0625 18.3838 12.6437 18.1557 12.2424C17.9189 11.8258 17.6407 11.4631 17.3286 11.1646C17.0023 10.8524 16.6027 10.6013 16.1406 10.4182C15.6801 10.236 15.1699 10.1437 14.624 10.1437C14.4096 10.1437 14.2023 10.2317 13.8019 10.4923C13.5555 10.653 13.2673 10.8389 12.9456 11.0445C12.6705 11.2197 12.2978 11.384 11.8375 11.5326C11.3884 11.6779 10.9324 11.7516 10.4824 11.7516C10.0323 11.7516 9.57651 11.6779 9.12694 11.5326C8.66711 11.3841 8.29445 11.2199 8.01968 11.0446C7.701 10.841 7.41261 10.6551 7.16251 10.4922C6.76261 10.2315 6.55513 10.1436 6.34076 10.1436C5.79474 10.1436 5.28461 10.236 4.8243 10.4183C4.36256 10.6011 3.96281 10.8522 3.63613 11.1648C3.32419 11.4634 3.04589 11.826 2.80941 12.2424C2.58142 12.6437 2.39685 13.0624 2.26099 13.4868C2.12977 13.8971 2.02002 14.3459 1.93478 14.8208C1.85035 15.2915 1.79299 15.738 1.76463 16.1482C1.73676 16.55 1.72266 16.967 1.72266 17.3882C1.72266 18.4844 2.07113 19.3719 2.7583 20.0264C3.43698 20.6722 4.335 20.9998 5.42704 20.9998H15.5387C16.6307 20.9998 17.5284 20.6723 18.2073 20.0264C18.8946 19.3724 19.2431 18.4848 19.2431 17.3881C19.2429 16.9649 19.2286 16.5476 19.2006 16.1477Z" fill="#B1B1B1"/>
</svg>
