<svg width="25" height="25" viewBox="0 0 25 25" fill="none" xmlns="http://www.w3.org/2000/svg">
<path d="M4.16659 18.75H6.24992V23.001L11.5635 18.75H16.6666C17.8155 18.75 18.7499 17.8156 18.7499 16.6667V8.33333C18.7499 7.18438 17.8155 6.25 16.6666 6.25H4.16659C3.01763 6.25 2.08325 7.18438 2.08325 8.33333V16.6667C2.08325 17.8156 3.01763 18.75 4.16659 18.75Z" fill="#B1B1B1"/>
<path d="M20.8333 2.0835H8.33333C7.18437 2.0835 6.25 3.01787 6.25 4.16683H18.75C19.899 4.16683 20.8333 5.1012 20.8333 6.25016V14.5835C21.9823 14.5835 22.9167 13.6491 22.9167 12.5002V4.16683C22.9167 3.01787 21.9823 2.0835 20.8333 2.0835Z" fill="#B1B1B1"/>
</svg>
